<svg xmlns="http://www.w3.org/2000/svg" xmlns:xlink="http://www.w3.org/1999/xlink" viewBox="0,0,256,256" width="64px" height="64px" fill-rule="nonzero"><g fill="none" fill-rule="nonzero" stroke="none" stroke-width="none" stroke-linecap="none" stroke-linejoin="none" stroke-miterlimit="10" stroke-dasharray="" stroke-dashoffset="0" font-family="none" font-weight="none" font-size="none" text-anchor="none" style="mix-blend-mode: normal"><g transform="scale(4,4)"><ellipse cx="32" cy="61" rx="22.562" ry="3" fill="#000000" stroke="none" stroke-width="1" stroke-linecap="butt" stroke-linejoin="miter" opacity="0.3"></ellipse><path d="M50,12h-36c-3.866,0 -7,3.134 -7,7v22c0,3.866 3.134,7 7,7h36c3.866,0 7,-3.134 7,-7v-22c0,-3.866 -3.134,-7 -7,-7z" fill="#ffc301" stroke="none" stroke-width="1" stroke-linecap="butt" stroke-linejoin="miter"></path><path d="M10.5,22.5v-3.5c0,-1.93 1.57,-3.5 3.5,-3.5h3.5" fill="none" stroke="#ffffff" stroke-width="3" stroke-linecap="round" stroke-linejoin="round"></path><path d="M57,26c-2.762,0 -5,2.238 -5,5v10c0,1.103 -0.897,2 -2,2h-12c-2.762,0 -5,2.238 -5,5h17c3.866,0 7,-3.134 7,-7v-15z" fill="#000000" stroke="none" stroke-width="1" stroke-linecap="butt" stroke-linejoin="miter" opacity="0.15"></path><path d="M24,17c2.762,0 5,-2.238 5,-5v0h-15c-3.866,0 -7,3.134 -7,7v15v0c2.762,0 5,-2.238 5,-5v-10c0,-1.103 0.897,-2 2,-2z" fill="#ffffff" stroke="none" stroke-width="1" stroke-linecap="butt" stroke-linejoin="miter" opacity="0.3"></path><g fill-opacity="0.92941" fill="#313333" stroke="none" stroke-width="1" stroke-linecap="butt" stroke-linejoin="miter"><path d="M31.047,26.866c-0.021,1.648 1.469,2.567 2.591,3.114c1.152,0.561 1.54,0.921 1.536,1.423c-0.009,0.768 -0.92,1.107 -1.772,1.12c-1.488,0.023 -2.352,-0.401 -3.039,-0.722l-0.536,2.507c0.69,0.317 1.967,0.595 3.292,0.607c3.109,0 5.143,-1.535 5.154,-3.914c0.012,-3.02 -4.177,-3.187 -4.149,-4.537c0.01,-0.409 0.4,-0.846 1.256,-0.958c0.424,-0.056 1.593,-0.099 2.918,0.512l0.521,-2.425c-0.713,-0.26 -1.63,-0.509 -2.77,-0.509c-2.926,0 -4.985,1.556 -5.002,3.782M43.818,23.293c-0.568,0 -1.046,0.331 -1.26,0.839l-4.44,10.604h3.107l0.618,-1.709h3.797l0.359,1.709h2.738l-2.39,-11.443h-2.529M44.253,26.385l0.896,4.298h-2.456l1.56,-4.298M27.282,23.293l-2.449,11.443h2.961l2.448,-11.443h-2.96M22.901,23.293l-3.082,7.789l-1.246,-6.622c-0.146,-0.739 -0.724,-1.166 -1.365,-1.166h-5.038l-0.069,0.332c1.034,0.225 2.209,0.587 2.921,0.974c0.436,0.237 0.56,0.444 0.703,1.006l2.361,9.132h3.129l4.796,-11.443l-3.11,-0.002"></path></g></g></g></svg>