<svg xmlns="http://www.w3.org/2000/svg" xmlns:xlink="http://www.w3.org/1999/xlink" viewBox="0,0,256,256" width="38px" height="38px" fill-rule="nonzero"><g fill="none" fill-rule="nonzero" stroke="none" stroke-width="none" stroke-linecap="none" stroke-linejoin="none" stroke-miterlimit="10" stroke-dasharray="" stroke-dashoffset="0" font-family="none" font-weight="none" font-size="none" text-anchor="none" style="mix-blend-mode: normal"><g transform="scale(4,4)"><circle cx="32" cy="32" r="23" fill="#37d0ee" stroke="none" stroke-width="1" stroke-linecap="butt" stroke-linejoin="miter"></circle><path d="M15.016,22.426c1.835,-3.242 4.571,-5.909 7.865,-7.659" fill="none" stroke="#ffffff" stroke-width="3" stroke-linecap="round" stroke-linejoin="round"></path><ellipse cx="32" cy="61" rx="19" ry="3" fill-opacity="0" fill="#000000" stroke="none" stroke-width="1" stroke-linecap="butt" stroke-linejoin="miter" opacity="0.3"></ellipse><path d="M32,14c2.577,0 4.674,-1.957 4.946,-4.461c-1.594,-0.349 -3.247,-0.539 -4.946,-0.539c-12.703,0 -23,10.297 -23,23c0,1.699 0.19,3.352 0.539,4.946c2.505,-0.272 4.461,-2.369 4.461,-4.946c0,-9.925 8.075,-18 18,-18z" fill="#ffffff" stroke="none" stroke-width="1" stroke-linecap="butt" stroke-linejoin="miter" opacity="0.3"></path><path d="M54.461,27.054c-2.505,0.272 -4.461,2.369 -4.461,4.946c0,9.925 -8.075,18 -18,18c-2.577,0 -4.674,1.957 -4.946,4.461c1.594,0.349 3.247,0.539 4.946,0.539c12.703,0 23,-10.297 23,-23c0,-1.699 -0.19,-3.352 -0.539,-4.946z" fill-opacity="0" fill="#000000" stroke="none" stroke-width="1" stroke-linecap="butt" stroke-linejoin="miter" opacity="0.15"></path><path d="M18.82,31.887c8.313,-3.74 19.071,-8.3 20.556,-8.931c3.895,-1.652 5.09,-1.336 4.494,2.323c-0.428,2.63 -1.663,11.335 -2.647,16.754c-0.584,3.214 -1.895,3.594 -3.955,2.204c-0.991,-0.669 -5.992,-4.052 -7.078,-4.846c-0.991,-0.724 -2.357,-1.595 -0.643,-3.31c0.61,-0.611 4.607,-4.515 7.722,-7.553c0.408,-0.399 -0.105,-1.055 -0.576,-0.735c-4.198,2.847 -10.019,6.799 -10.76,7.314c-1.119,0.777 -2.194,1.134 -4.123,0.567c-1.458,-0.428 -2.882,-0.939 -3.436,-1.134c-2.133,-0.749 -1.627,-1.72 0.446,-2.653z" fill="#ffffff" stroke="none" stroke-width="1" stroke-linecap="butt" stroke-linejoin="miter"></path></g></g></svg>