<svg xmlns="http://www.w3.org/2000/svg" xmlns:xlink="http://www.w3.org/1999/xlink" viewBox="0,0,256,256" width="38px" height="38px" fill-rule="nonzero"><g fill="none" fill-rule="nonzero" stroke="none" stroke-width="none" stroke-linecap="none" stroke-linejoin="none" stroke-miterlimit="10" stroke-dasharray="" stroke-dashoffset="0" font-family="none" font-weight="none" font-size="none" text-anchor="none" style="mix-blend-mode: normal"><g transform="scale(4,4)"><ellipse cx="32" cy="61" rx="19" ry="3" fill-opacity="0" fill="#000000" stroke="none" stroke-width="1" stroke-linecap="butt" stroke-linejoin="miter" opacity="0.3"></ellipse><path d="M21.405,56.751c-0.503,0.532 -1.398,0.178 -1.399,-0.555c-0.004,-1.798 -0.003,-3.958 0.013,-5.336c0.017,-1.447 -0.94,-2.015 -1.653,-2.35c-0.482,-0.227 -1.039,-0.428 -1.63,-0.64c-0.834,-0.3 -1.696,-0.61 -2.269,-0.976c-2.535,-1.617 -4.253,-4.121 -5.257,-7.657c-1.103,-3.891 -1.45,-8.11 -1.062,-12.899c0.171,-2.108 0.469,-4.328 0.909,-6.784c0.825,-4.593 3.433,-7.854 7.975,-9.97c2.408,-1.122 5.074,-1.821 8.642,-2.264c1.587,-0.197 3.238,-0.296 4.909,-0.296c2.389,0 4.841,0.195 7.493,0.596c3.312,0.501 6.799,1.259 9.862,3.399c2.309,1.614 3.887,3.903 4.687,6.807c1.301,4.713 1.673,9.949 1.138,16.003c-0.294,3.337 -1.075,6.272 -2.386,8.971c-1.163,2.391 -3.037,4.107 -5.73,5.248c-3.103,1.313 -6.502,1.597 -9.444,1.76c-2.538,0.14 -5.171,0.288 -7.597,0.288c-1.19,0.024 -1.601,0.5 -2.077,1.05l-0.229,0.26c-1.055,1.172 -3.22,3.573 -4.895,5.345z" fill="#9c34c2" stroke="none" stroke-width="1" stroke-linecap="butt" stroke-linejoin="miter"></path><path d="M12.502,20.171c0.627,-3.485 2.479,-5.772 6.009,-7.416" fill="none" stroke="#ffffff" stroke-width="3" stroke-linecap="round" stroke-linejoin="round"></path><path d="M53.991,28.85c-2.667,-0.128 -4.972,1.862 -5.208,4.541c-0.239,2.717 -0.861,5.08 -1.901,7.222c-0.628,1.291 -1.61,2.164 -3.183,2.83c-2.364,1.001 -5.25,1.233 -7.77,1.372c-2.744,0.151 -4.846,2.488 -4.715,5.23c1.65,-0.055 3.338,-0.146 4.99,-0.237c2.942,-0.163 6.341,-0.447 9.444,-1.76c2.693,-1.141 4.566,-2.857 5.73,-5.248c1.311,-2.699 2.092,-5.633 2.386,-8.971c0.152,-1.727 0.223,-3.379 0.227,-4.979z" fill-opacity="0" fill="#000000" stroke="none" stroke-width="1" stroke-linecap="butt" stroke-linejoin="miter" opacity="0.15"></path><path d="M19.144,14.114c2.331,-1.086 3.406,-3.737 2.604,-6.118c-1.752,0.403 -3.282,0.918 -4.716,1.586c-4.542,2.116 -7.15,5.376 -7.975,9.97c-0.441,2.456 -0.739,4.675 -0.909,6.784c-0.141,1.737 -0.182,3.396 -0.128,4.995c0.044,0.001 0.09,0.005 0.134,0.005c2.578,0 4.766,-1.981 4.978,-4.596c0.158,-1.945 0.436,-4.008 0.848,-6.305c0.537,-2.994 2.082,-4.884 5.164,-6.321z" fill="#ffffff" stroke="none" stroke-width="1" stroke-linecap="butt" stroke-linejoin="miter" opacity="0.3"></path><path d="M16.944,21.454c0.056,-2.548 2.009,-3.981 3.983,-4.415c0.754,-0.167 1.421,0.099 1.982,0.634c1.549,1.478 2.772,3.191 3.695,5.114c0.405,0.843 0.223,1.589 -0.465,2.216c-0.142,0.13 -0.291,0.251 -0.445,0.368c-1.567,1.18 -1.799,2.071 -0.963,3.846c1.424,3.021 3.784,5.048 6.839,6.306c0.806,0.332 1.562,0.168 2.179,-0.485c0.082,-0.087 0.176,-0.171 0.237,-0.272c1.205,-2.009 2.951,-1.81 4.563,-0.664c1.06,0.753 2.089,1.547 3.137,2.315c1.596,1.172 1.582,2.274 0.611,3.86c-0.709,1.159 -1.77,1.961 -3.021,2.484c-0.913,0.382 -1.846,0.301 -2.745,-0.081c-7.555,-3.196 -13.478,-8.235 -17.394,-15.477c-0.807,-1.492 -1.369,-3.116 -2.012,-4.692c-0.132,-0.323 -0.125,-0.703 -0.181,-1.057z" fill="#ffffff" stroke="none" stroke-width="1" stroke-linecap="butt" stroke-linejoin="miter"></path><path d="M35.467,29.004c-0.549,0 -0.994,-0.444 -0.994,-0.994c0,-1.843 -1.5,-3.343 -3.343,-3.343c-0.549,0 -0.994,-0.444 -0.994,-0.994c0,-0.55 0.445,-0.994 0.994,-0.994c2.94,0 5.33,2.391 5.33,5.33c0.001,0.551 -0.445,0.995 -0.993,0.995z" fill="#ffffff" stroke="none" stroke-width="1" stroke-linecap="butt" stroke-linejoin="miter"></path><path d="M39.624,28.907c-0.055,0 -0.111,-0.005 -0.167,-0.014c-0.544,-0.092 -0.912,-0.608 -0.819,-1.152c0.059,-0.353 0.089,-0.716 0.089,-1.08c0,-3.573 -2.907,-6.48 -6.48,-6.48c-0.364,0 -0.728,0.03 -1.081,0.09c-0.545,0.085 -1.061,-0.276 -1.152,-0.82c-0.091,-0.545 0.275,-1.061 0.82,-1.152c0.462,-0.078 0.938,-0.117 1.413,-0.117c4.676,0 8.48,3.805 8.48,8.48c0,0.476 -0.04,0.95 -0.118,1.412c-0.082,0.487 -0.505,0.833 -0.985,0.833z" fill="#ffffff" stroke="none" stroke-width="1" stroke-linecap="butt" stroke-linejoin="miter"></path><path d="M43.71,28.999c-0.073,0 -0.147,-0.008 -0.222,-0.024c-0.539,-0.122 -0.876,-0.657 -0.755,-1.196c0.16,-0.706 0.241,-1.433 0.241,-2.16c0,-5.354 -4.356,-9.71 -9.71,-9.71c-0.727,0 -1.454,0.081 -2.16,0.24c-0.54,0.119 -1.074,-0.217 -1.196,-0.756c-0.122,-0.538 0.217,-1.073 0.755,-1.195c0.851,-0.191 1.726,-0.289 2.601,-0.289c6.457,0 11.71,5.253 11.71,11.71c0,0.876 -0.098,1.751 -0.29,2.602c-0.104,0.462 -0.517,0.778 -0.974,0.778z" fill="#ffffff" stroke="none" stroke-width="1" stroke-linecap="butt" stroke-linejoin="miter"></path></g></g></svg>